<?xml version="1.0" encoding="UTF-8" standalone="no"?>
<!DOCTYPE svg PUBLIC "-//W3C//DTD SVG 1.1//EN"
 "http://www.w3.org/Graphics/SVG/1.1/DTD/svg11.dtd">
<!-- Generated by graphviz version 2.36.0 (20140111.2315)
 -->
<!-- Title: finite_state_machine Pages: 1 -->
<svg width="1232pt" height="494pt"
 viewBox="0.00 0.00 1232.00 493.81" xmlns="http://www.w3.org/2000/svg" xmlns:xlink="http://www.w3.org/1999/xlink">
<g id="graph0" class="graph" transform="scale(1 1) rotate(0) translate(4 489.812)">
<title>finite_state_machine</title>
<polygon fill="white" stroke="none" points="-4,4 -4,-489.812 1228,-489.812 1228,4 -4,4"/>
<!-- OFF -->
<g id="node1" class="node"><title>OFF</title>
<ellipse fill="none" stroke="black" cx="45" cy="-278" rx="45" ry="45"/>
<text text-anchor="middle" x="45" y="-274.3" font-family="Times,serif" font-size="14.00">OFF</text>
</g>
<!-- OFF&#45;&gt;OFF -->
<g id="edge1" class="edge"><title>OFF&#45;&gt;OFF</title>
<path fill="none" stroke="black" d="M21.388,-316.448C21.0102,-330.002 28.8809,-341 45,-341 56.8375,-341 64.2265,-335.069 67.1671,-326.55"/>
<polygon fill="black" stroke="black" points="70.6607,-326.843 68.612,-316.448 63.7313,-325.852 70.6607,-326.843"/>
</g>
<!-- EN_33 -->
<g id="node2" class="node"><title>EN_33</title>
<ellipse fill="none" stroke="black" cx="171" cy="-224" rx="45" ry="45"/>
<text text-anchor="middle" x="171" y="-220.3" font-family="Times,serif" font-size="14.00">3.3_EN</text>
</g>
<!-- OFF&#45;&gt;EN_33 -->
<g id="edge2" class="edge"><title>OFF&#45;&gt;EN_33</title>
<path fill="none" stroke="black" d="M86.6022,-260.318C97.3074,-255.656 108.983,-250.572 120.116,-245.724"/>
<polygon fill="black" stroke="black" points="121.536,-248.923 129.307,-241.721 118.741,-242.505 121.536,-248.923"/>
</g>
<!-- EN_12_LP -->
<g id="node3" class="node"><title>EN_12_LP</title>
<ellipse fill="none" stroke="black" cx="297" cy="-336" rx="45" ry="45"/>
<text text-anchor="middle" x="297" y="-332.3" font-family="Times,serif" font-size="14.00">1.2_EN_LP</text>
</g>
<!-- OFF&#45;&gt;EN_12_LP -->
<g id="edge3" class="edge"><title>OFF&#45;&gt;EN_12_LP</title>
<path fill="none" stroke="black" d="M88.9765,-287.971C131.637,-297.868 197.119,-313.06 242.985,-323.701"/>
<polygon fill="black" stroke="black" points="242.215,-327.115 252.748,-325.965 243.797,-320.296 242.215,-327.115"/>
</g>
<!-- EN_25 -->
<g id="node7" class="node"><title>EN_25</title>
<ellipse fill="none" stroke="black" cx="297" cy="-206" rx="45" ry="45"/>
<text text-anchor="middle" x="297" y="-202.3" font-family="Times,serif" font-size="14.00">2.5_EN</text>
</g>
<!-- EN_33&#45;&gt;EN_25 -->
<g id="edge7" class="edge"><title>EN_33&#45;&gt;EN_25</title>
<path fill="none" stroke="black" d="M215.718,-217.654C224.33,-216.404 233.459,-215.078 242.355,-213.787"/>
<polygon fill="black" stroke="black" points="242.866,-217.25 252.259,-212.349 241.86,-210.322 242.866,-217.25"/>
</g>
<!-- LP -->
<g id="node4" class="node"><title>LP</title>
<ellipse fill="none" stroke="black" cx="927" cy="-338" rx="45" ry="45"/>
<text text-anchor="middle" x="927" y="-334.3" font-family="Times,serif" font-size="14.00">LP</text>
</g>
<!-- EN_12_LP&#45;&gt;LP -->
<g id="edge4" class="edge"><title>EN_12_LP&#45;&gt;LP</title>
<path fill="none" stroke="black" d="M342.256,-336.568C392.221,-337.159 475.949,-338 548,-338 548,-338 548,-338 676,-338 743.405,-338 821.032,-338 871.673,-338"/>
<polygon fill="black" stroke="black" points="871.744,-341.5 881.744,-338 871.744,-334.5 871.744,-341.5"/>
</g>
<!-- EN_33_LP -->
<g id="node5" class="node"><title>EN_33_LP</title>
<ellipse fill="none" stroke="black" cx="1053" cy="-265" rx="45" ry="45"/>
<text text-anchor="middle" x="1053" y="-261.3" font-family="Times,serif" font-size="14.00">3.3_EN_LP</text>
</g>
<!-- LP&#45;&gt;EN_33_LP -->
<g id="edge5" class="edge"><title>LP&#45;&gt;EN_33_LP</title>
<path fill="none" stroke="black" d="M966.216,-315.502C978.473,-308.286 992.193,-300.209 1005,-292.668"/>
<polygon fill="black" stroke="black" points="1006.85,-295.639 1013.7,-287.549 1003.3,-289.607 1006.85,-295.639"/>
</g>
<!-- DIS_12_LP -->
<g id="node6" class="node"><title>DIS_12_LP</title>
<ellipse fill="none" stroke="black" cx="1179" cy="-411" rx="45" ry="45"/>
<text text-anchor="middle" x="1179" y="-407.3" font-family="Times,serif" font-size="14.00">1.2_DIS_LP</text>
</g>
<!-- LP&#45;&gt;DIS_12_LP -->
<g id="edge6" class="edge"><title>LP&#45;&gt;DIS_12_LP</title>
<path fill="none" stroke="black" d="M972.289,-337.21C1007.4,-337.927 1057.17,-341.978 1098,-357 1110.91,-361.749 1123.76,-369.003 1135.27,-376.669"/>
<polygon fill="black" stroke="black" points="1133.58,-379.753 1143.79,-382.576 1137.57,-374.001 1133.58,-379.753"/>
</g>
<!-- LP_LB -->
<g id="node14" class="node"><title>LP_LB</title>
<ellipse fill="none" stroke="black" cx="1053" cy="-411" rx="45" ry="45"/>
<text text-anchor="middle" x="1053" y="-407.3" font-family="Times,serif" font-size="14.00">LP_LB</text>
</g>
<!-- LP&#45;&gt;LP_LB -->
<g id="edge16" class="edge"><title>LP&#45;&gt;LP_LB</title>
<path fill="none" stroke="black" d="M966.216,-360.498C978.473,-367.714 992.193,-375.791 1005,-383.332"/>
<polygon fill="black" stroke="black" points="1003.3,-386.393 1013.7,-388.451 1006.85,-380.361 1003.3,-386.393"/>
</g>
<!-- EN_25_LP -->
<g id="node15" class="node"><title>EN_25_LP</title>
<ellipse fill="none" stroke="black" cx="1179" cy="-229" rx="45" ry="45"/>
<text text-anchor="middle" x="1179" y="-225.3" font-family="Times,serif" font-size="14.00">2.5_EN_LP</text>
</g>
<!-- EN_33_LP&#45;&gt;EN_25_LP -->
<g id="edge17" class="edge"><title>EN_33_LP&#45;&gt;EN_25_LP</title>
<path fill="none" stroke="black" d="M1096.33,-252.712C1105.8,-249.962 1115.95,-247.014 1125.77,-244.163"/>
<polygon fill="black" stroke="black" points="1126.82,-247.505 1135.44,-241.355 1124.86,-240.782 1126.82,-247.505"/>
</g>
<!-- DIS_12_LP&#45;&gt;OFF -->
<g id="edge22" class="edge"><title>DIS_12_LP&#45;&gt;OFF</title>
<path fill="none" stroke="black" d="M1143.79,-439.424C1130.31,-449.135 1114.2,-459.041 1098,-465 1026.65,-491.249 1004.03,-484 928,-484 296,-484 296,-484 296,-484 196.566,-484 115.232,-385.74 74.4253,-324.946"/>
<polygon fill="black" stroke="black" points="77.1279,-322.686 68.7014,-316.264 71.2838,-326.54 77.1279,-322.686"/>
</g>
<!-- EN_12 -->
<g id="node8" class="node"><title>EN_12</title>
<ellipse fill="none" stroke="black" cx="423" cy="-197" rx="45" ry="45"/>
<text text-anchor="middle" x="423" y="-193.3" font-family="Times,serif" font-size="14.00">1.2_EN</text>
</g>
<!-- EN_25&#45;&gt;EN_12 -->
<g id="edge8" class="edge"><title>EN_25&#45;&gt;EN_12</title>
<path fill="none" stroke="black" d="M342.067,-202.802C350.473,-202.192 359.359,-201.547 368.033,-200.917"/>
<polygon fill="black" stroke="black" points="368.355,-204.403 378.075,-200.188 367.848,-197.421 368.355,-204.403"/>
</g>
<!-- ON -->
<g id="node9" class="node"><title>ON</title>
<ellipse fill="none" stroke="black" cx="549" cy="-192" rx="45" ry="45"/>
<text text-anchor="middle" x="549" y="-188.3" font-family="Times,serif" font-size="14.00">ON</text>
</g>
<!-- EN_12&#45;&gt;ON -->
<g id="edge9" class="edge"><title>EN_12&#45;&gt;ON</title>
<path fill="none" stroke="black" d="M468.067,-195.223C476.282,-194.892 484.957,-194.542 493.443,-194.2"/>
<polygon fill="black" stroke="black" points="493.806,-197.688 503.657,-193.788 493.524,-190.694 493.806,-197.688"/>
</g>
<!-- DIS_12 -->
<g id="node10" class="node"><title>DIS_12</title>
<ellipse fill="none" stroke="black" cx="801" cy="-81" rx="45" ry="45"/>
<text text-anchor="middle" x="801" y="-77.3" font-family="Times,serif" font-size="14.00">1.2_DIS</text>
</g>
<!-- ON&#45;&gt;DIS_12 -->
<g id="edge10" class="edge"><title>ON&#45;&gt;DIS_12</title>
<path fill="none" stroke="black" d="M592.828,-181.114C627.986,-171.368 678.551,-155.465 720,-135 732.213,-128.97 744.735,-121.325 756.139,-113.699"/>
<polygon fill="black" stroke="black" points="758.341,-116.434 764.618,-107.898 754.389,-110.656 758.341,-116.434"/>
</g>
<!-- ON_LB -->
<g id="node13" class="node"><title>ON_LB</title>
<ellipse fill="none" stroke="black" cx="675" cy="-81" rx="45" ry="45"/>
<text text-anchor="middle" x="675" y="-77.3" font-family="Times,serif" font-size="14.00">ON_LB</text>
</g>
<!-- ON&#45;&gt;ON_LB -->
<g id="edge14" class="edge"><title>ON&#45;&gt;ON_LB</title>
<path fill="none" stroke="black" d="M583.23,-162.254C598.519,-148.568 616.808,-132.196 632.949,-117.747"/>
<polygon fill="black" stroke="black" points="635.562,-120.106 640.679,-110.828 630.893,-114.89 635.562,-120.106"/>
</g>
<!-- DIS_25_LP -->
<g id="node16" class="node"><title>DIS_25_LP</title>
<ellipse fill="none" stroke="black" cx="675" cy="-265" rx="45" ry="45"/>
<text text-anchor="middle" x="675" y="-261.3" font-family="Times,serif" font-size="14.00">2.5_DIS_LP</text>
</g>
<!-- ON&#45;&gt;DIS_25_LP -->
<g id="edge19" class="edge"><title>ON&#45;&gt;DIS_25_LP</title>
<path fill="none" stroke="black" d="M588.216,-214.498C600.473,-221.714 614.193,-229.791 627.003,-237.332"/>
<polygon fill="black" stroke="black" points="625.304,-240.393 635.697,-242.451 628.855,-234.361 625.304,-240.393"/>
</g>
<!-- DIS_25 -->
<g id="node12" class="node"><title>DIS_25</title>
<ellipse fill="none" stroke="black" cx="927" cy="-81" rx="45" ry="45"/>
<text text-anchor="middle" x="927" y="-77.3" font-family="Times,serif" font-size="14.00">2.5_DIS</text>
</g>
<!-- DIS_12&#45;&gt;DIS_25 -->
<g id="edge13" class="edge"><title>DIS_12&#45;&gt;DIS_25</title>
<path fill="none" stroke="black" d="M846.067,-81C854.282,-81 862.957,-81 871.443,-81"/>
<polygon fill="black" stroke="black" points="871.657,-84.5001 881.657,-81 871.657,-77.5001 871.657,-84.5001"/>
</g>
<!-- DIS_33 -->
<g id="node11" class="node"><title>DIS_33</title>
<ellipse fill="none" stroke="black" cx="1053" cy="-45" rx="45" ry="45"/>
<text text-anchor="middle" x="1053" y="-41.3" font-family="Times,serif" font-size="14.00">3.3_DIS</text>
</g>
<!-- DIS_33&#45;&gt;OFF -->
<g id="edge11" class="edge"><title>DIS_33&#45;&gt;OFF</title>
<path fill="none" stroke="black" d="M1008.99,-34.4106C997.064,-31.7232 984.074,-29.0268 972,-27 897.023,-14.4144 878.026,-8 802,-8 296,-8 296,-8 296,-8 177.982,-8 100.106,-148.607 65.8952,-226.885"/>
<polygon fill="black" stroke="black" points="62.6644,-225.539 61.9398,-236.109 69.0978,-228.298 62.6644,-225.539"/>
</g>
<!-- DIS_25&#45;&gt;DIS_33 -->
<g id="edge12" class="edge"><title>DIS_25&#45;&gt;DIS_33</title>
<path fill="none" stroke="black" d="M970.327,-68.7115C979.799,-65.9617 989.953,-63.0135 999.773,-60.1627"/>
<polygon fill="black" stroke="black" points="1000.82,-63.5047 1009.44,-57.3553 998.863,-56.7823 1000.82,-63.5047"/>
</g>
<!-- ON_LB&#45;&gt;DIS_12 -->
<g id="edge15" class="edge"><title>ON_LB&#45;&gt;DIS_12</title>
<path fill="none" stroke="black" d="M720.067,-81C728.282,-81 736.957,-81 745.443,-81"/>
<polygon fill="black" stroke="black" points="745.657,-84.5001 755.657,-81 745.657,-77.5001 745.657,-84.5001"/>
</g>
<!-- LP_LB&#45;&gt;DIS_12_LP -->
<g id="edge23" class="edge"><title>LP_LB&#45;&gt;DIS_12_LP</title>
<path fill="none" stroke="black" d="M1098.07,-411C1106.28,-411 1114.96,-411 1123.44,-411"/>
<polygon fill="black" stroke="black" points="1123.66,-414.5 1133.66,-411 1123.66,-407.5 1123.66,-414.5"/>
</g>
<!-- EN_25_LP&#45;&gt;ON -->
<g id="edge18" class="edge"><title>EN_25_LP&#45;&gt;ON</title>
<path fill="none" stroke="black" d="M1134.99,-218.411C1123.06,-215.723 1110.07,-213.027 1098,-211 1023.02,-198.414 1004.03,-192 928,-192 800,-192 800,-192 800,-192 732.595,-192 654.968,-192 604.327,-192"/>
<polygon fill="black" stroke="black" points="604.256,-188.5 594.256,-192 604.256,-195.5 604.256,-188.5"/>
</g>
<!-- DIS_33_LP -->
<g id="node17" class="node"><title>DIS_33_LP</title>
<ellipse fill="none" stroke="black" cx="801" cy="-265" rx="45" ry="45"/>
<text text-anchor="middle" x="801" y="-261.3" font-family="Times,serif" font-size="14.00">3.3_DIS_LP</text>
</g>
<!-- DIS_25_LP&#45;&gt;DIS_33_LP -->
<g id="edge21" class="edge"><title>DIS_25_LP&#45;&gt;DIS_33_LP</title>
<path fill="none" stroke="black" d="M720.067,-265C728.282,-265 736.957,-265 745.443,-265"/>
<polygon fill="black" stroke="black" points="745.657,-268.5 755.657,-265 745.657,-261.5 745.657,-268.5"/>
</g>
<!-- DIS_33_LP&#45;&gt;LP -->
<g id="edge20" class="edge"><title>DIS_33_LP&#45;&gt;LP</title>
<path fill="none" stroke="black" d="M840.216,-287.498C852.473,-294.714 866.193,-302.791 879.003,-310.332"/>
<polygon fill="black" stroke="black" points="877.304,-313.393 887.697,-315.451 880.855,-307.361 877.304,-313.393"/>
</g>
</g>
</svg>
