<?xml version="1.0" encoding="UTF-8" standalone="no"?>
<!DOCTYPE svg PUBLIC "-//W3C//DTD SVG 1.1//EN"
 "http://www.w3.org/Graphics/SVG/1.1/DTD/svg11.dtd">
<!-- Generated by graphviz version 2.36.0 (20140111.2315)
 -->
<!-- Title: finite_state_machine Pages: 1 -->
<svg width="1970pt" height="587pt"
 viewBox="0.00 0.00 1969.74 587.00" xmlns="http://www.w3.org/2000/svg" xmlns:xlink="http://www.w3.org/1999/xlink">
<g id="graph0" class="graph" transform="scale(1 1) rotate(0) translate(36 551)">
<title>finite_state_machine</title>
<polygon fill="white" stroke="none" points="-36,36 -36,-551 1933.74,-551 1933.74,36 -36,36"/>
<!-- OFF -->
<g id="node1" class="node"><title>OFF</title>
<ellipse fill="none" stroke="black" cx="66.7387" cy="-202" rx="43" ry="43"/>
<text text-anchor="middle" x="66.7387" y="-198.3" font-family="Times,serif" font-size="14.00">OFF</text>
</g>
<!-- OFF&#45;&gt;OFF -->
<g id="edge1" class="edge"><title>OFF:e&#45;&gt;OFF:w</title>
<path fill="none" stroke="black" d="M109.739,-202C146.239,-222.333 146.239,-263 66.7387,-263 -5.92923,-263 -12.1741,-229.023 15.1646,-207.654"/>
<polygon fill="black" stroke="black" points="17.3172,-210.427 23.7387,-202 13.4636,-204.583 17.3172,-210.427"/>
<text text-anchor="middle" x="66.7387" y="-266.8" font-family="Times,serif" font-size="14.00">ON = 1, LB = 1</text>
</g>
<!-- EN_33 -->
<g id="node2" class="node"><title>EN_33</title>
<ellipse fill="none" stroke="black" cx="360.739" cy="-281" rx="43" ry="43"/>
<text text-anchor="middle" x="360.739" y="-277.3" font-family="Times,serif" font-size="14.00">3.3v_EN</text>
</g>
<!-- OFF&#45;&gt;EN_33 -->
<g id="edge2" class="edge"><title>OFF&#45;&gt;EN_33</title>
<path fill="none" stroke="black" d="M108.34,-212.985C160.82,-227.183 252.203,-251.906 309.144,-267.312"/>
<polygon fill="black" stroke="black" points="308.446,-270.749 319.013,-269.982 310.274,-263.991 308.446,-270.749"/>
<text text-anchor="middle" x="213.739" y="-266.8" font-family="Times,serif" font-size="14.00">ON = 1, LB = 0, and LPM = 0</text>
</g>
<!-- EN_12_LP -->
<g id="node3" class="node"><title>EN_12_LP</title>
<ellipse fill="none" stroke="black" cx="464.739" cy="-157" rx="43" ry="43"/>
<text text-anchor="middle" x="464.739" y="-153.3" font-family="Times,serif" font-size="14.00">1.2v_EN_LP</text>
</g>
<!-- OFF&#45;&gt;EN_12_LP -->
<g id="edge3" class="edge"><title>OFF&#45;&gt;EN_12_LP</title>
<path fill="none" stroke="black" d="M109.743,-197.227C182.609,-188.947 332.237,-171.943 411.615,-162.923"/>
<polygon fill="black" stroke="black" points="412.327,-166.365 421.868,-161.758 411.537,-159.41 412.327,-166.365"/>
<text text-anchor="middle" x="213.739" y="-197.8" font-family="Times,serif" font-size="14.00">ON = 1, LB = 0, and LPM = 1</text>
</g>
<!-- EN_25 -->
<g id="node7" class="node"><title>EN_25</title>
<ellipse fill="none" stroke="black" cx="568.739" cy="-290" rx="43" ry="43"/>
<text text-anchor="middle" x="568.739" y="-286.3" font-family="Times,serif" font-size="14.00">2.5v_EN</text>
</g>
<!-- EN_33&#45;&gt;EN_25 -->
<g id="edge7" class="edge"><title>EN_33&#45;&gt;EN_25</title>
<path fill="none" stroke="black" d="M403.923,-282.843C436.139,-284.25 480.722,-286.198 515.245,-287.707"/>
<polygon fill="black" stroke="black" points="515.468,-291.22 525.611,-288.159 515.773,-284.226 515.468,-291.22"/>
<text text-anchor="middle" x="464.739" y="-290.8" font-family="Times,serif" font-size="14.00">T1</text>
</g>
<!-- LP -->
<g id="node4" class="node"><title>LP</title>
<ellipse fill="none" stroke="black" cx="1422.74" cy="-155" rx="43" ry="43"/>
<text text-anchor="middle" x="1422.74" y="-151.3" font-family="Times,serif" font-size="14.00">LP</text>
</g>
<!-- EN_12_LP&#45;&gt;LP -->
<g id="edge4" class="edge"><title>EN_12_LP&#45;&gt;LP</title>
<path fill="none" stroke="black" d="M507.901,-156.232C542.511,-155.668 592.798,-155 636.739,-155 636.739,-155 636.739,-155 1285.74,-155 1313.34,-155 1344.09,-155 1369.36,-155"/>
<polygon fill="black" stroke="black" points="1369.47,-158.5 1379.47,-155 1369.47,-151.5 1369.47,-158.5"/>
</g>
<!-- EN_33_LP -->
<g id="node5" class="node"><title>EN_33_LP</title>
<ellipse fill="none" stroke="black" cx="1716.74" cy="-226" rx="43" ry="43"/>
<text text-anchor="middle" x="1716.74" y="-222.3" font-family="Times,serif" font-size="14.00">3.3v_EN_LP</text>
</g>
<!-- LP&#45;&gt;EN_33_LP -->
<g id="edge5" class="edge"><title>LP&#45;&gt;EN_33_LP</title>
<path fill="none" stroke="black" d="M1464.65,-164.947C1517.06,-177.692 1607.92,-199.785 1664.78,-213.609"/>
<polygon fill="black" stroke="black" points="1664.09,-217.044 1674.64,-216.006 1665.75,-210.242 1664.09,-217.044"/>
<text text-anchor="middle" x="1569.74" y="-213.8" font-family="Times,serif" font-size="14.00">ON = 1, LB = 0, and LPM = 0</text>
</g>
<!-- DIS_12_LP -->
<g id="node6" class="node"><title>DIS_12_LP</title>
<ellipse fill="none" stroke="black" cx="1854.74" cy="-46" rx="43" ry="43"/>
<text text-anchor="middle" x="1854.74" y="-42.3" font-family="Times,serif" font-size="14.00">1.2v_DIS_LP</text>
</g>
<!-- LP&#45;&gt;DIS_12_LP -->
<g id="edge6" class="edge"><title>LP&#45;&gt;DIS_12_LP</title>
<path fill="none" stroke="black" d="M1461.58,-136.054C1468.88,-132.588 1476.5,-129.092 1483.74,-126 1566.63,-90.5695 1585.46,-73.2441 1673.74,-55 1715.99,-46.2685 1764.95,-44.332 1801.13,-44.4037"/>
<polygon fill="black" stroke="black" points="1801.43,-47.9059 1811.45,-44.479 1801.48,-40.906 1801.43,-47.9059"/>
<text text-anchor="middle" x="1716.74" y="-58.8" font-family="Times,serif" font-size="14.00">T3 and ON = 0</text>
</g>
<!-- LP_LB -->
<g id="node14" class="node"><title>LP_LB</title>
<ellipse fill="none" stroke="black" cx="1716.74" cy="-122" rx="43" ry="43"/>
<text text-anchor="middle" x="1716.74" y="-118.3" font-family="Times,serif" font-size="14.00">LP_LB</text>
</g>
<!-- LP&#45;&gt;LP_LB -->
<g id="edge16" class="edge"><title>LP&#45;&gt;LP_LB</title>
<path fill="none" stroke="black" d="M1465.58,-150.272C1517.83,-144.366 1607.24,-134.262 1663.81,-127.868"/>
<polygon fill="black" stroke="black" points="1664.44,-131.32 1673.98,-126.719 1663.65,-124.365 1664.44,-131.32"/>
<text text-anchor="middle" x="1569.74" y="-150.8" font-family="Times,serif" font-size="14.00">ON = 1 and LB = 1</text>
</g>
<!-- EN_25_LP -->
<g id="node15" class="node"><title>EN_25_LP</title>
<ellipse fill="none" stroke="black" cx="1854.74" cy="-279" rx="43" ry="43"/>
<text text-anchor="middle" x="1854.74" y="-275.3" font-family="Times,serif" font-size="14.00">2.5v_EN_LP</text>
</g>
<!-- EN_33_LP&#45;&gt;EN_25_LP -->
<g id="edge17" class="edge"><title>EN_33_LP&#45;&gt;EN_25_LP</title>
<path fill="none" stroke="black" d="M1757.08,-241.33C1772.02,-247.153 1789.22,-253.857 1804.93,-259.98"/>
<polygon fill="black" stroke="black" points="1803.9,-263.335 1814.49,-263.705 1806.44,-256.812 1803.9,-263.335"/>
<text text-anchor="middle" x="1785.74" y="-257.8" font-family="Times,serif" font-size="14.00">T1</text>
</g>
<!-- DIS_12_LP&#45;&gt;OFF -->
<g id="edge22" class="edge"><title>DIS_12_LP&#45;&gt;OFF</title>
<path fill="none" stroke="black" d="M1816.48,-26.0913C1789.77,-13.6592 1752.51,-0 1717.74,-0 359.739,-0 359.739,-0 359.739,-0 248.468,-0 148.936,-100.432 99.9105,-159.664"/>
<polygon fill="black" stroke="black" points="96.9379,-157.771 93.3321,-167.733 102.363,-162.194 96.9379,-157.771"/>
</g>
<!-- EN_12 -->
<g id="node8" class="node"><title>EN_12</title>
<ellipse fill="none" stroke="black" cx="706.739" cy="-292" rx="43" ry="43"/>
<text text-anchor="middle" x="706.739" y="-288.3" font-family="Times,serif" font-size="14.00">1.2vv_EN</text>
</g>
<!-- EN_25&#45;&gt;EN_12 -->
<g id="edge8" class="edge"><title>EN_25&#45;&gt;EN_12</title>
<path fill="none" stroke="black" d="M612.024,-290.622C625.073,-290.814 639.603,-291.027 653.252,-291.228"/>
<polygon fill="black" stroke="black" points="653.429,-294.731 663.479,-291.379 653.532,-287.732 653.429,-294.731"/>
<text text-anchor="middle" x="637.739" y="-294.8" font-family="Times,serif" font-size="14.00">T2</text>
</g>
<!-- ON -->
<g id="node9" class="node"><title>ON</title>
<ellipse fill="none" stroke="black" cx="830.739" cy="-297" rx="43" ry="43"/>
<text text-anchor="middle" x="830.739" y="-293.3" font-family="Times,serif" font-size="14.00">ON</text>
</g>
<!-- EN_12&#45;&gt;ON -->
<g id="edge9" class="edge"><title>EN_12&#45;&gt;ON</title>
<path fill="none" stroke="black" d="M749.724,-293.721C758.638,-294.086 768.154,-294.476 777.399,-294.855"/>
<polygon fill="black" stroke="black" points="777.541,-298.364 787.676,-295.276 777.828,-291.369 777.541,-298.364"/>
</g>
<!-- DIS_12 -->
<g id="node10" class="node"><title>DIS_12</title>
<ellipse fill="none" stroke="black" cx="1284.74" cy="-419" rx="43" ry="43"/>
<text text-anchor="middle" x="1284.74" y="-415.3" font-family="Times,serif" font-size="14.00">1.2v_DIS</text>
</g>
<!-- ON&#45;&gt;DIS_12 -->
<g id="edge10" class="edge"><title>ON&#45;&gt;DIS_12</title>
<path fill="none" stroke="black" d="M853.292,-334.159C863.278,-348.317 876.36,-363.351 891.739,-373 997.7,-439.482 1151.88,-434.539 1231.62,-426.23"/>
<polygon fill="black" stroke="black" points="1232.34,-429.672 1241.9,-425.097 1231.58,-422.714 1232.34,-429.672"/>
<text text-anchor="middle" x="1146.74" y="-433.8" font-family="Times,serif" font-size="14.00">T3 and ON = 0</text>
</g>
<!-- ON_LB -->
<g id="node13" class="node"><title>ON_LB</title>
<ellipse fill="none" stroke="black" cx="1146.74" cy="-368" rx="43" ry="43"/>
<text text-anchor="middle" x="1146.74" y="-364.3" font-family="Times,serif" font-size="14.00">ON_LB</text>
</g>
<!-- ON&#45;&gt;ON_LB -->
<g id="edge14" class="edge"><title>ON&#45;&gt;ON_LB</title>
<path fill="none" stroke="black" d="M872.718,-306.611C879.084,-308.089 885.587,-309.592 891.739,-311 961.951,-327.069 1043.19,-345.222 1094.51,-356.637"/>
<polygon fill="black" stroke="black" points="1093.84,-360.074 1104.36,-358.827 1095.36,-353.24 1093.84,-360.074"/>
<text text-anchor="middle" x="988.739" y="-357.8" font-family="Times,serif" font-size="14.00">ON = 1, and LB = 1</text>
</g>
<!-- DIS_25_LP -->
<g id="node16" class="node"><title>DIS_25_LP</title>
<ellipse fill="none" stroke="black" cx="1146.74" cy="-226" rx="43" ry="43"/>
<text text-anchor="middle" x="1146.74" y="-222.3" font-family="Times,serif" font-size="14.00">2.5v_DIS_LP</text>
</g>
<!-- ON&#45;&gt;DIS_25_LP -->
<g id="edge19" class="edge"><title>ON&#45;&gt;DIS_25_LP</title>
<path fill="none" stroke="black" d="M868.831,-277.047C876.263,-273.632 884.129,-270.413 891.739,-268 959.641,-246.47 1041.44,-235.469 1093.52,-230.232"/>
<polygon fill="black" stroke="black" points="1093.91,-233.71 1103.53,-229.26 1093.23,-226.743 1093.91,-233.71"/>
<text text-anchor="middle" x="988.739" y="-271.8" font-family="Times,serif" font-size="14.00">T3, ON = 1, LB = 0, and LPM = 1</text>
</g>
<!-- DIS_25 -->
<g id="node12" class="node"><title>DIS_25</title>
<ellipse fill="none" stroke="black" cx="1422.74" cy="-419" rx="43" ry="43"/>
<text text-anchor="middle" x="1422.74" y="-415.3" font-family="Times,serif" font-size="14.00">2.5v_DIS</text>
</g>
<!-- DIS_12&#45;&gt;DIS_25 -->
<g id="edge13" class="edge"><title>DIS_12&#45;&gt;DIS_25</title>
<path fill="none" stroke="black" d="M1328.02,-419C1341.07,-419 1355.6,-419 1369.25,-419"/>
<polygon fill="black" stroke="black" points="1369.48,-422.5 1379.48,-419 1369.48,-415.5 1369.48,-422.5"/>
<text text-anchor="middle" x="1353.74" y="-422.8" font-family="Times,serif" font-size="14.00">T4</text>
</g>
<!-- DIS_33 -->
<g id="node11" class="node"><title>DIS_33</title>
<ellipse fill="none" stroke="black" cx="1716.74" cy="-472" rx="43" ry="43"/>
<text text-anchor="middle" x="1716.74" y="-468.3" font-family="Times,serif" font-size="14.00">3.3v_DIS</text>
</g>
<!-- DIS_33&#45;&gt;OFF -->
<g id="edge11" class="edge"><title>DIS_33&#45;&gt;OFF</title>
<path fill="none" stroke="black" d="M1673.72,-476.22C1617.03,-481.54 1512.88,-490 1423.74,-490 359.739,-490 359.739,-490 359.739,-490 224.845,-490 129.689,-332.277 89.3311,-250.271"/>
<polygon fill="black" stroke="black" points="92.4183,-248.616 84.91,-241.141 86.118,-251.666 92.4183,-248.616"/>
</g>
<!-- DIS_25&#45;&gt;DIS_33 -->
<g id="edge12" class="edge"><title>DIS_25&#45;&gt;DIS_33</title>
<path fill="none" stroke="black" d="M1465.23,-426.483C1511.66,-434.862 1589.09,-448.858 1655.74,-461 1658.52,-461.507 1661.38,-462.028 1664.26,-462.555"/>
<polygon fill="black" stroke="black" points="1663.64,-465.999 1674.1,-464.354 1664.9,-459.113 1663.64,-465.999"/>
<text text-anchor="middle" x="1569.74" y="-464.8" font-family="Times,serif" font-size="14.00">T5</text>
</g>
<!-- ON_LB&#45;&gt;DIS_12 -->
<g id="edge15" class="edge"><title>ON_LB&#45;&gt;DIS_12</title>
<path fill="none" stroke="black" d="M1187.44,-382.888C1202.24,-388.44 1219.23,-394.808 1234.77,-400.635"/>
<polygon fill="black" stroke="black" points="1233.63,-403.947 1244.22,-404.181 1236.09,-397.393 1233.63,-403.947"/>
</g>
<!-- LP_LB&#45;&gt;DIS_12_LP -->
<g id="edge23" class="edge"><title>LP_LB&#45;&gt;DIS_12_LP</title>
<path fill="none" stroke="black" d="M1754.54,-101.433C1771.02,-92.2243 1790.62,-81.2713 1808.03,-71.543"/>
<polygon fill="black" stroke="black" points="1809.88,-74.5167 1816.91,-66.5831 1806.47,-68.4061 1809.88,-74.5167"/>
</g>
<!-- EN_25_LP&#45;&gt;ON -->
<g id="edge18" class="edge"><title>EN_25_LP&#45;&gt;ON</title>
<path fill="none" stroke="black" d="M1812.26,-287.368C1785.42,-292.068 1749.65,-297 1717.74,-297 1145.74,-297 1145.74,-297 1145.74,-297 1053.75,-297 946.609,-297 884.254,-297"/>
<polygon fill="black" stroke="black" points="883.893,-293.5 873.893,-297 883.893,-300.5 883.893,-293.5"/>
</g>
<!-- DIS_33_LP -->
<g id="node17" class="node"><title>DIS_33_LP</title>
<ellipse fill="none" stroke="black" cx="1284.74" cy="-226" rx="43" ry="43"/>
<text text-anchor="middle" x="1284.74" y="-222.3" font-family="Times,serif" font-size="14.00">3.3v_DIS_LP</text>
</g>
<!-- DIS_25_LP&#45;&gt;DIS_33_LP -->
<g id="edge21" class="edge"><title>DIS_25_LP&#45;&gt;DIS_33_LP</title>
<path fill="none" stroke="black" d="M1190.02,-226C1203.07,-226 1217.6,-226 1231.25,-226"/>
<polygon fill="black" stroke="black" points="1231.48,-229.5 1241.48,-226 1231.48,-222.5 1231.48,-229.5"/>
<text text-anchor="middle" x="1215.74" y="-229.8" font-family="Times,serif" font-size="14.00">T4</text>
</g>
<!-- DIS_33_LP&#45;&gt;LP -->
<g id="edge20" class="edge"><title>DIS_33_LP&#45;&gt;LP</title>
<path fill="none" stroke="black" d="M1323.26,-206.411C1339.32,-198.03 1358.23,-188.157 1375.16,-179.315"/>
<polygon fill="black" stroke="black" points="1377.09,-182.256 1384.34,-174.525 1373.85,-176.05 1377.09,-182.256"/>
</g>
</g>
</svg>
