<?xml version="1.0" encoding="UTF-8" standalone="no"?>
<!DOCTYPE svg PUBLIC "-//W3C//DTD SVG 1.1//EN"
 "http://www.w3.org/Graphics/SVG/1.1/DTD/svg11.dtd">
<!-- Generated by graphviz version 2.26.3 (20100126.1600)
 -->
<!-- Title: finite_state_machine Pages: 1 -->
<svg width="2268pt" height="589pt"
 viewBox="0.00 0.00 2267.50 589.00" xmlns="http://www.w3.org/2000/svg" xmlns:xlink="http://www.w3.org/1999/xlink">
<g id="graph1" class="graph" transform="scale(1 1) rotate(0) translate(4 585)">
<title>finite_state_machine</title>
<polygon fill="white" stroke="white" points="-4,5 -4,-585 2264.5,-585 2264.5,5 -4,5"/>
<!-- OFF -->
<g id="node1" class="node"><title>OFF</title>
<ellipse fill="none" stroke="black" cx="67.5" cy="-247" rx="54" ry="54"/>
<text text-anchor="middle" x="67.5" y="-242.9" font-family="Times Roman,serif" font-size="14.00">OFF</text>
</g>
<!-- OFF&#45;&gt;OFF -->
<g id="edge2" class="edge"><title>OFF:e&#45;&gt;OFF:sw</title>
<path fill="none" stroke="black" d="M121.5,-247C165.5,-223 165.5,-175 75.5,-175 -7.82031,-175 -14.0042,-185.285 20.449,-204.268"/>
<polygon fill="black" stroke="black" points="19.0165,-207.468 29.5,-209 22.2599,-201.265 19.0165,-207.468"/>
<text text-anchor="middle" x="67.5" y="-162.4" font-family="Times Roman,serif" font-size="14.00">ON = 1 and LB = 1</text>
</g>
<!-- EN_33 -->
<g id="node4" class="node"><title>EN_33</title>
<ellipse fill="none" stroke="black" cx="419.5" cy="-340" rx="54" ry="54"/>
<text text-anchor="middle" x="419.5" y="-335.9" font-family="Times Roman,serif" font-size="14.00">3.3v_EN</text>
</g>
<!-- OFF&#45;&gt;EN_33 -->
<g id="edge4" class="edge"><title>OFF&#45;&gt;EN_33</title>
<path fill="none" stroke="black" d="M119.818,-260.823C183.12,-277.547 289.586,-305.676 357.104,-323.515"/>
<polygon fill="black" stroke="black" points="356.62,-327.007 367.183,-326.177 358.408,-320.239 356.62,-327.007"/>
<text text-anchor="middle" x="243.5" y="-323.4" font-family="Times Roman,serif" font-size="14.00">ON = 1, LB = 0, and LPM = 0</text>
</g>
<!-- EN_12_LP -->
<g id="node6" class="node"><title>EN_12_LP</title>
<ellipse fill="none" stroke="black" cx="545.5" cy="-197" rx="54" ry="54"/>
<text text-anchor="middle" x="545.5" y="-192.9" font-family="Times Roman,serif" font-size="14.00">1.2v_EN_LP</text>
</g>
<!-- OFF&#45;&gt;EN_12_LP -->
<g id="edge6" class="edge"><title>OFF&#45;&gt;EN_12_LP</title>
<path fill="none" stroke="black" d="M121.404,-241.362C210.097,-232.084 386.42,-213.64 481.379,-203.707"/>
<polygon fill="black" stroke="black" points="481.846,-207.178 491.427,-202.656 481.117,-200.216 481.846,-207.178"/>
<text text-anchor="middle" x="243.5" y="-242.4" font-family="Times Roman,serif" font-size="14.00">ON = 1, LB = 0, and LPM = 1</text>
</g>
<!-- EN_25 -->
<g id="node14" class="node"><title>EN_25</title>
<ellipse fill="none" stroke="black" cx="671.5" cy="-343" rx="54" ry="54"/>
<text text-anchor="middle" x="671.5" y="-338.9" font-family="Times Roman,serif" font-size="14.00">2.5v_EN</text>
</g>
<!-- EN_33&#45;&gt;EN_25 -->
<g id="edge14" class="edge"><title>EN_33&#45;&gt;EN_25</title>
<path fill="none" stroke="black" d="M473.56,-340.644C512.624,-341.109 565.561,-341.739 606.861,-342.23"/>
<polygon fill="black" stroke="black" points="607.054,-345.733 617.095,-342.352 607.137,-338.733 607.054,-345.733"/>
<text text-anchor="middle" x="545.5" y="-346.4" font-family="Times Roman,serif" font-size="14.00">T1</text>
</g>
<!-- LP -->
<g id="node8" class="node"><title>LP</title>
<ellipse fill="none" stroke="black" cx="1689.5" cy="-187" rx="54" ry="54"/>
<text text-anchor="middle" x="1689.5" y="-182.9" font-family="Times Roman,serif" font-size="14.00">LP</text>
</g>
<!-- EN_12_LP&#45;&gt;LP -->
<g id="edge8" class="edge"><title>EN_12_LP&#45;&gt;LP</title>
<path fill="none" stroke="black" d="M599.772,-192.961C641.723,-190.186 701.259,-187 753.5,-187 753.5,-187 753.5,-187 1525.5,-187 1558.37,-187 1594.95,-187 1625.2,-187"/>
<polygon fill="black" stroke="black" points="1625.21,-190.5 1635.21,-187 1625.21,-183.5 1625.21,-190.5"/>
</g>
<!-- EN_33_LP -->
<g id="node10" class="node"><title>EN_33_LP</title>
<ellipse fill="none" stroke="black" cx="2041.5" cy="-269" rx="54" ry="54"/>
<text text-anchor="middle" x="2041.5" y="-264.9" font-family="Times Roman,serif" font-size="14.00">3.3v_EN_LP</text>
</g>
<!-- LP&#45;&gt;EN_33_LP -->
<g id="edge10" class="edge"><title>LP&#45;&gt;EN_33_LP</title>
<path fill="none" stroke="black" d="M1742.2,-199.276C1805.41,-214.001 1911.26,-238.66 1978.66,-254.362"/>
<polygon fill="black" stroke="black" points="1978.2,-257.847 1988.73,-256.707 1979.78,-251.029 1978.2,-257.847"/>
<text text-anchor="middle" x="1865.5" y="-255.4" font-family="Times Roman,serif" font-size="14.00">ON = 1, LB = 0, and LPM = 0</text>
</g>
<!-- DIS_12_LP -->
<g id="node12" class="node"><title>DIS_12_LP</title>
<ellipse fill="none" stroke="black" cx="2205.5" cy="-54" rx="54" ry="54"/>
<text text-anchor="middle" x="2205.5" y="-49.9" font-family="Times Roman,serif" font-size="14.00">1.2v_DIS_LP</text>
</g>
<!-- LP&#45;&gt;DIS_12_LP -->
<g id="edge12" class="edge"><title>LP&#45;&gt;DIS_12_LP</title>
<path fill="none" stroke="black" d="M1736.71,-160.637C1793.98,-130.265 1894.46,-82.0966 1987.5,-63 2038.34,-52.565 2097.21,-50.7219 2140.95,-51.2628"/>
<polygon fill="black" stroke="black" points="2141.1,-54.7658 2151.16,-51.4356 2141.22,-47.7668 2141.1,-54.7658"/>
<text text-anchor="middle" x="2041.5" y="-67.4" font-family="Times Roman,serif" font-size="14.00">T3 and ON = 0</text>
</g>
<!-- LP_LB -->
<g id="node30" class="node"><title>LP_LB</title>
<ellipse fill="none" stroke="black" cx="2041.5" cy="-143" rx="54" ry="54"/>
<text text-anchor="middle" x="2041.5" y="-138.9" font-family="Times Roman,serif" font-size="14.00">LP_LB</text>
</g>
<!-- LP&#45;&gt;LP_LB -->
<g id="edge32" class="edge"><title>LP&#45;&gt;LP_LB</title>
<path fill="none" stroke="black" d="M1743.34,-180.269C1806.36,-172.392 1910.6,-159.362 1977.64,-150.982"/>
<polygon fill="black" stroke="black" points="1978.17,-154.443 1987.66,-149.73 1977.3,-147.497 1978.17,-154.443"/>
<text text-anchor="middle" x="1865.5" y="-182.4" font-family="Times Roman,serif" font-size="14.00">ON = 1 and LB = 1</text>
</g>
<!-- EN_25_LP -->
<g id="node32" class="node"><title>EN_25_LP</title>
<ellipse fill="none" stroke="black" cx="2205.5" cy="-330" rx="54" ry="54"/>
<text text-anchor="middle" x="2205.5" y="-325.9" font-family="Times Roman,serif" font-size="14.00">2.5v_EN_LP</text>
</g>
<!-- EN_33_LP&#45;&gt;EN_25_LP -->
<g id="edge34" class="edge"><title>EN_33_LP&#45;&gt;EN_25_LP</title>
<path fill="none" stroke="black" d="M2092.49,-287.966C2109.23,-294.193 2127.99,-301.171 2145.35,-307.626"/>
<polygon fill="black" stroke="black" points="2144.23,-310.944 2154.82,-311.15 2146.67,-304.383 2144.23,-310.944"/>
<text text-anchor="middle" x="2123.5" y="-307.4" font-family="Times Roman,serif" font-size="14.00">T1</text>
</g>
<!-- DIS_12_LP&#45;&gt;OFF -->
<g id="edge44" class="edge"><title>DIS_12_LP&#45;&gt;OFF</title>
<path fill="none" stroke="black" d="M2155.9,-32.4815C2123.88,-20.5095 2080.98,-8 2041.5,-8 419.5,-8 419.5,-8 419.5,-8 286.674,-8 166.772,-125.922 107.174,-196.103"/>
<polygon fill="black" stroke="black" points="104.299,-194.084 100.555,-203.996 109.663,-198.583 104.299,-194.084"/>
</g>
<!-- EN_12 -->
<g id="node16" class="node"><title>EN_12</title>
<ellipse fill="none" stroke="black" cx="835.5" cy="-345" rx="54" ry="54"/>
<text text-anchor="middle" x="835.5" y="-340.9" font-family="Times Roman,serif" font-size="14.00">1.2vv_EN</text>
</g>
<!-- EN_25&#45;&gt;EN_12 -->
<g id="edge16" class="edge"><title>EN_25&#45;&gt;EN_12</title>
<path fill="none" stroke="black" d="M725.654,-343.66C740.209,-343.838 756.092,-344.032 771.143,-344.215"/>
<polygon fill="black" stroke="black" points="771.361,-347.718 781.403,-344.34 771.446,-340.718 771.361,-347.718"/>
<text text-anchor="middle" x="753.5" y="-348.4" font-family="Times Roman,serif" font-size="14.00">T2</text>
</g>
<!-- ON -->
<g id="node18" class="node"><title>ON</title>
<ellipse fill="none" stroke="black" cx="981.5" cy="-351" rx="54" ry="54"/>
<text text-anchor="middle" x="981.5" y="-346.9" font-family="Times Roman,serif" font-size="14.00">ON</text>
</g>
<!-- EN_12&#45;&gt;ON -->
<g id="edge18" class="edge"><title>EN_12&#45;&gt;ON</title>
<path fill="none" stroke="black" d="M889.865,-347.234C898.701,-347.597 907.927,-347.976 916.977,-348.348"/>
<polygon fill="black" stroke="black" points="916.954,-351.85 927.09,-348.764 917.242,-344.856 916.954,-351.85"/>
</g>
<!-- DIS_12 -->
<g id="node20" class="node"><title>DIS_12</title>
<ellipse fill="none" stroke="black" cx="1525.5" cy="-486" rx="54" ry="54"/>
<text text-anchor="middle" x="1525.5" y="-481.9" font-family="Times Roman,serif" font-size="14.00">1.2v_DIS</text>
</g>
<!-- ON&#45;&gt;DIS_12 -->
<g id="edge20" class="edge"><title>ON&#45;&gt;DIS_12</title>
<path fill="none" stroke="black" d="M1010.53,-397.093C1022.17,-412.195 1036.81,-427.719 1053.5,-438 1181.06,-516.553 1365.6,-507.718 1461.78,-496.016"/>
<polygon fill="black" stroke="black" points="1462.45,-499.458 1471.93,-494.729 1461.57,-492.514 1462.45,-499.458"/>
<text text-anchor="middle" x="1361.5" y="-507.4" font-family="Times Roman,serif" font-size="14.00">T3 and ON = 0</text>
</g>
<!-- ON_LB -->
<g id="node27" class="node"><title>ON_LB</title>
<ellipse fill="none" stroke="black" cx="1361.5" cy="-433" rx="54" ry="54"/>
<text text-anchor="middle" x="1361.5" y="-428.9" font-family="Times Roman,serif" font-size="14.00">ON_LB</text>
</g>
<!-- ON&#45;&gt;ON_LB -->
<g id="edge28" class="edge"><title>ON&#45;&gt;ON_LB</title>
<path fill="none" stroke="black" d="M1034.34,-362.402C1103.48,-377.322 1224.52,-403.441 1298.4,-419.383"/>
<polygon fill="black" stroke="black" points="1297.99,-422.875 1308.5,-421.563 1299.46,-416.033 1297.99,-422.875"/>
<text text-anchor="middle" x="1171.5" y="-421.4" font-family="Times Roman,serif" font-size="14.00">ON = 1, and LB = 1</text>
</g>
<!-- DIS_25_LP -->
<g id="node35" class="node"><title>DIS_25_LP</title>
<ellipse fill="none" stroke="black" cx="1361.5" cy="-269" rx="54" ry="54"/>
<text text-anchor="middle" x="1361.5" y="-264.9" font-family="Times Roman,serif" font-size="14.00">2.5v_DIS_LP</text>
</g>
<!-- ON&#45;&gt;DIS_25_LP -->
<g id="edge38" class="edge"><title>ON&#45;&gt;DIS_25_LP</title>
<path fill="none" stroke="black" d="M1030.49,-328.04C1038.09,-325.028 1045.93,-322.222 1053.5,-320 1135.9,-295.83 1234.27,-282.043 1297.29,-275.045"/>
<polygon fill="black" stroke="black" points="1297.91,-278.498 1307.48,-273.939 1297.16,-271.539 1297.91,-278.498"/>
<text text-anchor="middle" x="1171.5" y="-324.4" font-family="Times Roman,serif" font-size="14.00">T3, ON = 1, LB = 0, and LPM = 1</text>
</g>
<!-- DIS_25 -->
<g id="node23" class="node"><title>DIS_25</title>
<ellipse fill="none" stroke="black" cx="1689.5" cy="-486" rx="54" ry="54"/>
<text text-anchor="middle" x="1689.5" y="-481.9" font-family="Times Roman,serif" font-size="14.00">2.5v_DIS</text>
</g>
<!-- DIS_12&#45;&gt;DIS_25 -->
<g id="edge26" class="edge"><title>DIS_12&#45;&gt;DIS_25</title>
<path fill="none" stroke="black" d="M1579.65,-486C1594.21,-486 1610.09,-486 1625.14,-486"/>
<polygon fill="black" stroke="black" points="1625.4,-489.5 1635.4,-486 1625.4,-482.5 1625.4,-489.5"/>
<text text-anchor="middle" x="1607.5" y="-490.4" font-family="Times Roman,serif" font-size="14.00">T4</text>
</g>
<!-- DIS_33 -->
<g id="node21" class="node"><title>DIS_33</title>
<ellipse fill="none" stroke="black" cx="2041.5" cy="-527" rx="54" ry="54"/>
<text text-anchor="middle" x="2041.5" y="-522.9" font-family="Times Roman,serif" font-size="14.00">3.3v_DIS</text>
</g>
<!-- DIS_33&#45;&gt;OFF -->
<g id="edge22" class="edge"><title>DIS_33&#45;&gt;OFF</title>
<path fill="none" stroke="black" d="M1988.35,-537.082C1919.63,-549.222 1796.09,-568 1689.5,-568 419.5,-568 419.5,-568 419.5,-568 264.821,-568 148.279,-396.679 96.7053,-304.355"/>
<polygon fill="black" stroke="black" points="99.6635,-302.472 91.7702,-295.404 93.5334,-305.852 99.6635,-302.472"/>
</g>
<!-- DIS_25&#45;&gt;DIS_33 -->
<g id="edge24" class="edge"><title>DIS_25&#45;&gt;DIS_33</title>
<path fill="none" stroke="black" d="M1743.34,-492.272C1806.36,-499.612 1910.6,-511.753 1977.64,-519.562"/>
<polygon fill="black" stroke="black" points="1977.32,-523.049 1987.66,-520.729 1978.13,-516.096 1977.32,-523.049"/>
<text text-anchor="middle" x="1865.5" y="-522.4" font-family="Times Roman,serif" font-size="14.00">T5</text>
</g>
<!-- ON_LB&#45;&gt;DIS_12 -->
<g id="edge30" class="edge"><title>ON_LB&#45;&gt;DIS_12</title>
<path fill="none" stroke="black" d="M1412.94,-449.624C1429.2,-454.877 1447.32,-460.734 1464.19,-466.187"/>
<polygon fill="black" stroke="black" points="1463.37,-469.599 1473.96,-469.344 1465.52,-462.938 1463.37,-469.599"/>
</g>
<!-- LP_LB&#45;&gt;DIS_12_LP -->
<g id="edge46" class="edge"><title>LP_LB&#45;&gt;DIS_12_LP</title>
<path fill="none" stroke="black" d="M2089.38,-117.018C2107.99,-106.919 2129.45,-95.272 2148.82,-84.759"/>
<polygon fill="black" stroke="black" points="2150.73,-87.7062 2157.85,-79.8602 2147.39,-81.5537 2150.73,-87.7062"/>
</g>
<!-- EN_25_LP&#45;&gt;ON -->
<g id="edge36" class="edge"><title>EN_25_LP&#45;&gt;ON</title>
<path fill="none" stroke="black" d="M2152.17,-340.315C2120.2,-345.626 2078.67,-351 2041.5,-351 1361.5,-351 1361.5,-351 1361.5,-351 1250.6,-351 1121.51,-351 1045.92,-351"/>
<polygon fill="black" stroke="black" points="1045.62,-347.5 1035.62,-351 1045.62,-354.5 1045.62,-347.5"/>
</g>
<!-- DIS_33_LP -->
<g id="node36" class="node"><title>DIS_33_LP</title>
<ellipse fill="none" stroke="black" cx="1525.5" cy="-269" rx="54" ry="54"/>
<text text-anchor="middle" x="1525.5" y="-264.9" font-family="Times Roman,serif" font-size="14.00">3.3v_DIS_LP</text>
</g>
<!-- DIS_25_LP&#45;&gt;DIS_33_LP -->
<g id="edge42" class="edge"><title>DIS_25_LP&#45;&gt;DIS_33_LP</title>
<path fill="none" stroke="black" d="M1415.65,-269C1430.21,-269 1446.09,-269 1461.14,-269"/>
<polygon fill="black" stroke="black" points="1461.4,-272.5 1471.4,-269 1461.4,-265.5 1461.4,-272.5"/>
<text text-anchor="middle" x="1443.5" y="-273.4" font-family="Times Roman,serif" font-size="14.00">T4</text>
</g>
<!-- DIS_33_LP&#45;&gt;LP -->
<g id="edge40" class="edge"><title>DIS_33_LP&#45;&gt;LP</title>
<path fill="none" stroke="black" d="M1573.82,-244.841C1592.01,-235.747 1612.87,-225.315 1631.83,-215.836"/>
<polygon fill="black" stroke="black" points="1633.58,-218.873 1640.96,-211.27 1630.45,-212.612 1633.58,-218.873"/>
</g>
</g>
</svg>
