<?xml version="1.0" encoding="UTF-8" standalone="no"?>
<!DOCTYPE svg PUBLIC "-//W3C//DTD SVG 1.1//EN"
 "http://www.w3.org/Graphics/SVG/1.1/DTD/svg11.dtd">
<!-- Generated by graphviz version 2.36.0 (20140111.2315)
 -->
<!-- Title: finite_state_machine Pages: 1 -->
<svg width="1894pt" height="523pt"
 viewBox="0.00 0.00 1894.10 523.00" xmlns="http://www.w3.org/2000/svg" xmlns:xlink="http://www.w3.org/1999/xlink">
<g id="graph0" class="graph" transform="scale(1 1) rotate(0) translate(4 519)">
<title>finite_state_machine</title>
<polygon fill="white" stroke="none" points="-4,4 -4,-519 1890.1,-519 1890.1,4 -4,4"/>
<!-- OFF -->
<g id="node1" class="node"><title>OFF</title>
<ellipse fill="none" stroke="black" cx="55.1012" cy="-202" rx="43" ry="43"/>
<text text-anchor="middle" x="55.1012" y="-198.3" font-family="Times,serif" font-size="14.00">OFF</text>
</g>
<!-- OFF&#45;&gt;OFF -->
<g id="edge1" class="edge"><title>OFF:e&#45;&gt;OFF:sw</title>
<path fill="none" stroke="black" d="M98.1012,-202C134.601,-181.667 134.601,-141 61.1012,-141 -5.79527,-141 -11.8055,-150.941 15.174,-166.298"/>
<polygon fill="black" stroke="black" points="13.6224,-169.437 24.1012,-171 16.8845,-163.243 13.6224,-169.437"/>
<text text-anchor="middle" x="55.1012" y="-129.8" font-family="Times,serif" font-size="14.00">ON = 1 and LB = 1</text>
</g>
<!-- EN_33 -->
<g id="node2" class="node"><title>EN_33</title>
<ellipse fill="none" stroke="black" cx="349.101" cy="-281" rx="43" ry="43"/>
<text text-anchor="middle" x="349.101" y="-277.3" font-family="Times,serif" font-size="14.00">3.3v_EN</text>
</g>
<!-- OFF&#45;&gt;EN_33 -->
<g id="edge2" class="edge"><title>OFF&#45;&gt;EN_33</title>
<path fill="none" stroke="black" d="M96.7026,-212.985C149.182,-227.183 240.565,-251.906 297.507,-267.312"/>
<polygon fill="black" stroke="black" points="296.808,-270.749 307.375,-269.982 298.636,-263.991 296.808,-270.749"/>
<text text-anchor="middle" x="202.101" y="-266.8" font-family="Times,serif" font-size="14.00">ON = 1, LB = 0, and LPM = 0</text>
</g>
<!-- EN_12_LP -->
<g id="node3" class="node"><title>EN_12_LP</title>
<ellipse fill="none" stroke="black" cx="453.101" cy="-157" rx="43" ry="43"/>
<text text-anchor="middle" x="453.101" y="-153.3" font-family="Times,serif" font-size="14.00">1.2v_EN_LP</text>
</g>
<!-- OFF&#45;&gt;EN_12_LP -->
<g id="edge3" class="edge"><title>OFF&#45;&gt;EN_12_LP</title>
<path fill="none" stroke="black" d="M98.1052,-197.227C170.972,-188.947 320.6,-171.943 399.977,-162.923"/>
<polygon fill="black" stroke="black" points="400.69,-166.365 410.23,-161.758 399.899,-159.41 400.69,-166.365"/>
<text text-anchor="middle" x="202.101" y="-197.8" font-family="Times,serif" font-size="14.00">ON = 1, LB = 0, and LPM = 1</text>
</g>
<!-- EN_25 -->
<g id="node7" class="node"><title>EN_25</title>
<ellipse fill="none" stroke="black" cx="557.101" cy="-290" rx="43" ry="43"/>
<text text-anchor="middle" x="557.101" y="-286.3" font-family="Times,serif" font-size="14.00">2.5v_EN</text>
</g>
<!-- EN_33&#45;&gt;EN_25 -->
<g id="edge7" class="edge"><title>EN_33&#45;&gt;EN_25</title>
<path fill="none" stroke="black" d="M392.285,-282.843C424.501,-284.25 469.084,-286.198 503.607,-287.707"/>
<polygon fill="black" stroke="black" points="503.83,-291.22 513.973,-288.159 504.136,-284.226 503.83,-291.22"/>
<text text-anchor="middle" x="453.101" y="-290.8" font-family="Times,serif" font-size="14.00">T1</text>
</g>
<!-- LP -->
<g id="node4" class="node"><title>LP</title>
<ellipse fill="none" stroke="black" cx="1411.1" cy="-155" rx="43" ry="43"/>
<text text-anchor="middle" x="1411.1" y="-151.3" font-family="Times,serif" font-size="14.00">LP</text>
</g>
<!-- EN_12_LP&#45;&gt;LP -->
<g id="edge4" class="edge"><title>EN_12_LP&#45;&gt;LP</title>
<path fill="none" stroke="black" d="M496.264,-156.232C530.873,-155.668 581.161,-155 625.101,-155 625.101,-155 625.101,-155 1274.1,-155 1301.7,-155 1332.45,-155 1357.72,-155"/>
<polygon fill="black" stroke="black" points="1357.83,-158.5 1367.83,-155 1357.83,-151.5 1357.83,-158.5"/>
</g>
<!-- EN_33_LP -->
<g id="node5" class="node"><title>EN_33_LP</title>
<ellipse fill="none" stroke="black" cx="1705.1" cy="-226" rx="43" ry="43"/>
<text text-anchor="middle" x="1705.1" y="-222.3" font-family="Times,serif" font-size="14.00">3.3v_EN_LP</text>
</g>
<!-- LP&#45;&gt;EN_33_LP -->
<g id="edge5" class="edge"><title>LP&#45;&gt;EN_33_LP</title>
<path fill="none" stroke="black" d="M1453.01,-164.947C1505.43,-177.692 1596.29,-199.785 1653.14,-213.609"/>
<polygon fill="black" stroke="black" points="1652.45,-217.044 1663,-216.006 1654.11,-210.242 1652.45,-217.044"/>
<text text-anchor="middle" x="1558.1" y="-213.8" font-family="Times,serif" font-size="14.00">ON = 1, LB = 0, and LPM = 0</text>
</g>
<!-- DIS_12_LP -->
<g id="node6" class="node"><title>DIS_12_LP</title>
<ellipse fill="none" stroke="black" cx="1843.1" cy="-46" rx="43" ry="43"/>
<text text-anchor="middle" x="1843.1" y="-42.3" font-family="Times,serif" font-size="14.00">1.2v_DIS_LP</text>
</g>
<!-- LP&#45;&gt;DIS_12_LP -->
<g id="edge6" class="edge"><title>LP&#45;&gt;DIS_12_LP</title>
<path fill="none" stroke="black" d="M1449.95,-136.054C1457.24,-132.588 1464.87,-129.092 1472.1,-126 1554.99,-90.5695 1573.82,-73.2441 1662.1,-55 1704.35,-46.2685 1753.31,-44.332 1789.49,-44.4037"/>
<polygon fill="black" stroke="black" points="1789.79,-47.9059 1799.81,-44.479 1789.84,-40.906 1789.79,-47.9059"/>
<text text-anchor="middle" x="1705.1" y="-58.8" font-family="Times,serif" font-size="14.00">T3 and ON = 0</text>
</g>
<!-- LP_LB -->
<g id="node14" class="node"><title>LP_LB</title>
<ellipse fill="none" stroke="black" cx="1705.1" cy="-122" rx="43" ry="43"/>
<text text-anchor="middle" x="1705.1" y="-118.3" font-family="Times,serif" font-size="14.00">LP_LB</text>
</g>
<!-- LP&#45;&gt;LP_LB -->
<g id="edge16" class="edge"><title>LP&#45;&gt;LP_LB</title>
<path fill="none" stroke="black" d="M1453.94,-150.272C1506.19,-144.366 1595.6,-134.262 1652.18,-127.868"/>
<polygon fill="black" stroke="black" points="1652.8,-131.32 1662.34,-126.719 1652.01,-124.365 1652.8,-131.32"/>
<text text-anchor="middle" x="1558.1" y="-150.8" font-family="Times,serif" font-size="14.00">ON = 1 and LB = 1</text>
</g>
<!-- EN_25_LP -->
<g id="node15" class="node"><title>EN_25_LP</title>
<ellipse fill="none" stroke="black" cx="1843.1" cy="-279" rx="43" ry="43"/>
<text text-anchor="middle" x="1843.1" y="-275.3" font-family="Times,serif" font-size="14.00">2.5v_EN_LP</text>
</g>
<!-- EN_33_LP&#45;&gt;EN_25_LP -->
<g id="edge17" class="edge"><title>EN_33_LP&#45;&gt;EN_25_LP</title>
<path fill="none" stroke="black" d="M1745.44,-241.33C1760.38,-247.153 1777.58,-253.857 1793.3,-259.98"/>
<polygon fill="black" stroke="black" points="1792.26,-263.335 1802.85,-263.705 1794.81,-256.812 1792.26,-263.335"/>
<text text-anchor="middle" x="1774.1" y="-257.8" font-family="Times,serif" font-size="14.00">T1</text>
</g>
<!-- DIS_12_LP&#45;&gt;OFF -->
<g id="edge22" class="edge"><title>DIS_12_LP&#45;&gt;OFF</title>
<path fill="none" stroke="black" d="M1804.84,-26.0913C1778.13,-13.6592 1740.87,-0 1706.1,-0 348.101,-0 348.101,-0 348.101,-0 236.831,-0 137.298,-100.432 88.273,-159.664"/>
<polygon fill="black" stroke="black" points="85.3003,-157.771 81.6946,-167.733 90.726,-162.194 85.3003,-157.771"/>
</g>
<!-- EN_12 -->
<g id="node8" class="node"><title>EN_12</title>
<ellipse fill="none" stroke="black" cx="695.101" cy="-292" rx="43" ry="43"/>
<text text-anchor="middle" x="695.101" y="-288.3" font-family="Times,serif" font-size="14.00">1.2vv_EN</text>
</g>
<!-- EN_25&#45;&gt;EN_12 -->
<g id="edge8" class="edge"><title>EN_25&#45;&gt;EN_12</title>
<path fill="none" stroke="black" d="M600.387,-290.622C613.436,-290.814 627.966,-291.027 641.615,-291.228"/>
<polygon fill="black" stroke="black" points="641.791,-294.731 651.842,-291.379 641.894,-287.732 641.791,-294.731"/>
<text text-anchor="middle" x="626.101" y="-294.8" font-family="Times,serif" font-size="14.00">T2</text>
</g>
<!-- ON -->
<g id="node9" class="node"><title>ON</title>
<ellipse fill="none" stroke="black" cx="819.101" cy="-297" rx="43" ry="43"/>
<text text-anchor="middle" x="819.101" y="-293.3" font-family="Times,serif" font-size="14.00">ON</text>
</g>
<!-- EN_12&#45;&gt;ON -->
<g id="edge9" class="edge"><title>EN_12&#45;&gt;ON</title>
<path fill="none" stroke="black" d="M738.087,-293.721C747.001,-294.086 756.517,-294.476 765.762,-294.855"/>
<polygon fill="black" stroke="black" points="765.903,-298.364 776.038,-295.276 766.19,-291.369 765.903,-298.364"/>
</g>
<!-- DIS_12 -->
<g id="node10" class="node"><title>DIS_12</title>
<ellipse fill="none" stroke="black" cx="1273.1" cy="-419" rx="43" ry="43"/>
<text text-anchor="middle" x="1273.1" y="-415.3" font-family="Times,serif" font-size="14.00">1.2v_DIS</text>
</g>
<!-- ON&#45;&gt;DIS_12 -->
<g id="edge10" class="edge"><title>ON&#45;&gt;DIS_12</title>
<path fill="none" stroke="black" d="M841.655,-334.159C851.64,-348.317 864.722,-363.351 880.101,-373 986.062,-439.482 1140.24,-434.539 1219.98,-426.23"/>
<polygon fill="black" stroke="black" points="1220.71,-429.672 1230.26,-425.097 1219.94,-422.714 1220.71,-429.672"/>
<text text-anchor="middle" x="1135.1" y="-433.8" font-family="Times,serif" font-size="14.00">T3 and ON = 0</text>
</g>
<!-- ON_LB -->
<g id="node13" class="node"><title>ON_LB</title>
<ellipse fill="none" stroke="black" cx="1135.1" cy="-368" rx="43" ry="43"/>
<text text-anchor="middle" x="1135.1" y="-364.3" font-family="Times,serif" font-size="14.00">ON_LB</text>
</g>
<!-- ON&#45;&gt;ON_LB -->
<g id="edge14" class="edge"><title>ON&#45;&gt;ON_LB</title>
<path fill="none" stroke="black" d="M861.08,-306.611C867.446,-308.089 873.949,-309.592 880.101,-311 950.314,-327.069 1031.55,-345.222 1082.87,-356.637"/>
<polygon fill="black" stroke="black" points="1082.2,-360.074 1092.72,-358.827 1083.72,-353.24 1082.2,-360.074"/>
<text text-anchor="middle" x="977.101" y="-357.8" font-family="Times,serif" font-size="14.00">ON = 1, and LB = 1</text>
</g>
<!-- DIS_25_LP -->
<g id="node16" class="node"><title>DIS_25_LP</title>
<ellipse fill="none" stroke="black" cx="1135.1" cy="-226" rx="43" ry="43"/>
<text text-anchor="middle" x="1135.1" y="-222.3" font-family="Times,serif" font-size="14.00">2.5v_DIS_LP</text>
</g>
<!-- ON&#45;&gt;DIS_25_LP -->
<g id="edge19" class="edge"><title>ON&#45;&gt;DIS_25_LP</title>
<path fill="none" stroke="black" d="M857.193,-277.047C864.625,-273.632 872.492,-270.413 880.101,-268 948.004,-246.47 1029.8,-235.469 1081.88,-230.232"/>
<polygon fill="black" stroke="black" points="1082.27,-233.71 1091.89,-229.26 1081.6,-226.743 1082.27,-233.71"/>
<text text-anchor="middle" x="977.101" y="-271.8" font-family="Times,serif" font-size="14.00">T3, ON = 1, LB = 0, and LPM = 1</text>
</g>
<!-- DIS_25 -->
<g id="node12" class="node"><title>DIS_25</title>
<ellipse fill="none" stroke="black" cx="1411.1" cy="-419" rx="43" ry="43"/>
<text text-anchor="middle" x="1411.1" y="-415.3" font-family="Times,serif" font-size="14.00">2.5v_DIS</text>
</g>
<!-- DIS_12&#45;&gt;DIS_25 -->
<g id="edge13" class="edge"><title>DIS_12&#45;&gt;DIS_25</title>
<path fill="none" stroke="black" d="M1316.39,-419C1329.44,-419 1343.97,-419 1357.61,-419"/>
<polygon fill="black" stroke="black" points="1357.84,-422.5 1367.84,-419 1357.84,-415.5 1357.84,-422.5"/>
<text text-anchor="middle" x="1342.1" y="-422.8" font-family="Times,serif" font-size="14.00">T4</text>
</g>
<!-- DIS_33 -->
<g id="node11" class="node"><title>DIS_33</title>
<ellipse fill="none" stroke="black" cx="1705.1" cy="-472" rx="43" ry="43"/>
<text text-anchor="middle" x="1705.1" y="-468.3" font-family="Times,serif" font-size="14.00">3.3v_DIS</text>
</g>
<!-- DIS_33&#45;&gt;OFF -->
<g id="edge11" class="edge"><title>DIS_33&#45;&gt;OFF</title>
<path fill="none" stroke="black" d="M1662.08,-476.22C1605.39,-481.54 1501.24,-490 1412.1,-490 348.101,-490 348.101,-490 348.101,-490 213.207,-490 118.052,-332.277 77.6936,-250.271"/>
<polygon fill="black" stroke="black" points="80.7808,-248.616 73.2725,-241.141 74.4805,-251.666 80.7808,-248.616"/>
</g>
<!-- DIS_25&#45;&gt;DIS_33 -->
<g id="edge12" class="edge"><title>DIS_25&#45;&gt;DIS_33</title>
<path fill="none" stroke="black" d="M1453.6,-426.483C1500.02,-434.862 1577.45,-448.858 1644.1,-461 1646.88,-461.507 1649.74,-462.028 1652.62,-462.555"/>
<polygon fill="black" stroke="black" points="1652,-465.999 1662.47,-464.354 1653.26,-459.113 1652,-465.999"/>
<text text-anchor="middle" x="1558.1" y="-464.8" font-family="Times,serif" font-size="14.00">T5</text>
</g>
<!-- ON_LB&#45;&gt;DIS_12 -->
<g id="edge15" class="edge"><title>ON_LB&#45;&gt;DIS_12</title>
<path fill="none" stroke="black" d="M1175.8,-382.888C1190.61,-388.44 1207.59,-394.808 1223.13,-400.635"/>
<polygon fill="black" stroke="black" points="1221.99,-403.947 1232.58,-404.181 1224.45,-397.393 1221.99,-403.947"/>
</g>
<!-- LP_LB&#45;&gt;DIS_12_LP -->
<g id="edge23" class="edge"><title>LP_LB&#45;&gt;DIS_12_LP</title>
<path fill="none" stroke="black" d="M1742.9,-101.433C1759.38,-92.2243 1778.98,-81.2713 1796.39,-71.543"/>
<polygon fill="black" stroke="black" points="1798.25,-74.5167 1805.27,-66.5831 1794.83,-68.4061 1798.25,-74.5167"/>
</g>
<!-- EN_25_LP&#45;&gt;ON -->
<g id="edge18" class="edge"><title>EN_25_LP&#45;&gt;ON</title>
<path fill="none" stroke="black" d="M1800.62,-287.368C1773.78,-292.068 1738.02,-297 1706.1,-297 1134.1,-297 1134.1,-297 1134.1,-297 1042.12,-297 934.972,-297 872.616,-297"/>
<polygon fill="black" stroke="black" points="872.256,-293.5 862.256,-297 872.256,-300.5 872.256,-293.5"/>
</g>
<!-- DIS_33_LP -->
<g id="node17" class="node"><title>DIS_33_LP</title>
<ellipse fill="none" stroke="black" cx="1273.1" cy="-226" rx="43" ry="43"/>
<text text-anchor="middle" x="1273.1" y="-222.3" font-family="Times,serif" font-size="14.00">3.3v_DIS_LP</text>
</g>
<!-- DIS_25_LP&#45;&gt;DIS_33_LP -->
<g id="edge21" class="edge"><title>DIS_25_LP&#45;&gt;DIS_33_LP</title>
<path fill="none" stroke="black" d="M1178.39,-226C1191.44,-226 1205.97,-226 1219.61,-226"/>
<polygon fill="black" stroke="black" points="1219.84,-229.5 1229.84,-226 1219.84,-222.5 1219.84,-229.5"/>
<text text-anchor="middle" x="1204.1" y="-229.8" font-family="Times,serif" font-size="14.00">T4</text>
</g>
<!-- DIS_33_LP&#45;&gt;LP -->
<g id="edge20" class="edge"><title>DIS_33_LP&#45;&gt;LP</title>
<path fill="none" stroke="black" d="M1311.62,-206.411C1327.68,-198.03 1346.59,-188.157 1363.53,-179.315"/>
<polygon fill="black" stroke="black" points="1365.46,-182.256 1372.7,-174.525 1362.22,-176.05 1365.46,-182.256"/>
</g>
</g>
</svg>
